<?xml version="1.0" encoding="UTF-8"?>
<!DOCTYPE svg PUBLIC "-//W3C//DTD SVG 1.1//EN" "http://www.w3.org/Graphics/SVG/1.1/DTD/svg11.dtd">
<svg xmlns="http://www.w3.org/2000/svg" version="1.1" width="512px" height="512px" style="shape-rendering:geometricPrecision; text-rendering:geometricPrecision; image-rendering:optimizeQuality; fill-rule:evenodd; clip-rule:evenodd" xmlns:xlink="http://www.w3.org/1999/xlink">
<g><path style="opacity:0.992" fill="#a479e2" d="M 233.5,-0.5 C 248.167,-0.5 262.833,-0.5 277.5,-0.5C 377.805,11.9821 449.305,63.9821 492,155.5C 502.297,180.687 508.797,206.687 511.5,233.5C 511.5,248.167 511.5,262.833 511.5,277.5C 500.906,367.555 456.572,435.388 378.5,481C 353.301,494.455 326.634,503.622 298.5,508.5C 305.08,474.354 310.58,440.02 315,405.5C 317.619,386.19 317.952,366.856 316,347.5C 313.591,337.755 308.091,330.255 299.5,325C 271.942,311.713 244.275,311.38 216.5,324C 206.521,329.309 200.354,337.476 198,348.5C 197.088,372.576 198.088,396.576 201,420.5C 205.187,448.958 210.021,477.291 215.5,505.5C 215.5,506.5 215.5,507.5 215.5,508.5C 123.271,491.765 57.7708,440.765 19,355.5C 8.70332,330.313 2.20332,304.313 -0.5,277.5C -0.5,262.833 -0.5,248.167 -0.5,233.5C 11.9821,133.195 63.9821,61.6947 155.5,19C 180.687,8.70332 206.687,2.20332 233.5,-0.5 Z"/></g>
<g><path style="opacity:1" fill="#f1f0f1" d="M 234.5,25.5 C 333.343,21.6578 408.176,61.6578 459,145.5C 496.232,218.449 496.899,291.782 461,365.5C 432.163,418.674 389.329,455.674 332.5,476.5C 332.202,464.279 333.869,452.279 337.5,440.5C 407.509,406.28 447.009,350.28 456,272.5C 458.419,188.015 423.585,124.182 351.5,81C 280.764,45.7667 211.764,48.7667 144.5,90C 88.2551,129.818 58.2551,184.318 54.5,253.5C 56.0214,328.396 87.6881,386.562 149.5,428C 158.394,433.614 167.727,438.447 177.5,442.5C 180.255,454.031 182.255,465.698 183.5,477.5C 117.796,454.968 70.6291,411.968 42,348.5C 6.85342,255.588 21.8534,171.921 87,97.5C 127.675,56.2465 176.842,32.2465 234.5,25.5 Z"/></g>
<g><path style="opacity:1" fill="#f1f0f1" d="M 236.5,104.5 C 290.358,100.498 335.524,118.165 372,157.5C 412.209,208.305 419.542,263.638 394,323.5C 381.7,347.469 364.7,367.469 343,383.5C 342.548,370.141 342.215,356.808 342,343.5C 377.637,304.148 386.304,259.481 368,209.5C 342.031,157.585 299.864,133.085 241.5,136C 186.04,145.462 150.874,177.295 136,231.5C 128.414,276.518 140.581,315.185 172.5,347.5C 171.686,360.121 171.186,372.788 171,385.5C 121.078,349.816 98.4114,301.149 103,239.5C 114.084,172.748 151.917,129.248 216.5,109C 223.276,107.378 229.943,105.878 236.5,104.5 Z"/></g>
<g><path style="opacity:1" fill="#f1f1f1" d="M 246.5,182.5 C 279.088,180.951 300.255,195.618 310,226.5C 313.123,262.357 297.289,284.523 262.5,293C 233.768,294.554 213.935,282.054 203,255.5C 195.449,217.925 209.949,193.592 246.5,182.5 Z"/></g>
<g><path style="opacity:1" fill="#f1f1f1" d="M 298.5,508.5 C 297.5,508.5 296.5,508.5 295.5,508.5C 289.611,508.45 283.944,509.116 278.5,510.5C 278.5,510.833 278.5,511.167 278.5,511.5C 263.5,511.5 248.5,511.5 233.5,511.5C 230.167,510.833 226.833,510.167 223.5,509.5C 221.393,508.532 219.059,508.198 216.5,508.5C 216.737,507.209 216.404,506.209 215.5,505.5C 210.021,477.291 205.187,448.958 201,420.5C 198.088,396.576 197.088,372.576 198,348.5C 200.354,337.476 206.521,329.309 216.5,324C 244.275,311.38 271.942,311.713 299.5,325C 308.091,330.255 313.591,337.755 316,347.5C 317.952,366.856 317.619,386.19 315,405.5C 310.58,440.02 305.08,474.354 298.5,508.5 Z"/></g>
<g><path style="opacity:0.835" fill="#d0bdeb" d="M 215.5,505.5 C 216.404,506.209 216.737,507.209 216.5,508.5C 219.059,508.198 221.393,508.532 223.5,509.5C 220.615,509.806 217.948,509.473 215.5,508.5C 215.5,507.5 215.5,506.5 215.5,505.5 Z"/></g>
<g><path style="opacity:0.808" fill="#c8b1e9" d="M 295.5,508.5 C 290.056,509.884 284.389,510.55 278.5,510.5C 283.944,509.116 289.611,508.45 295.5,508.5 Z"/></g>
</svg>
